<svg width="122" height="122" viewBox="0 0 122 122" fill="none" xmlns="http://www.w3.org/2000/svg">
<rect x="0.75" y="0.75" width="120.5" height="120.5" rx="25.25" fill="white" stroke="#555555" stroke-width="0.5"/>
<path d="M1.25 61.25H60.75V120.75H26C12.331 120.75 1.25 109.669 1.25 96V61.25Z" fill="white" stroke="#555555" stroke-width="0.5"/>
<path d="M22.2426 78.7279L43.4558 99.9411L39.2132 104.184L18 82.9706L22.2426 78.7279Z" fill="#555555"/>
<path d="M18.2721 99.2132L39.4853 78L43.7279 82.2426L22.5147 103.456L18.2721 99.2132Z" fill="#555555"/>
<path d="M61.25 1.25H96C109.669 1.25 120.75 12.331 120.75 26V60.75H61.25V1.25Z" fill="white" stroke="#555555" stroke-width="0.5"/>
<rect x="76" y="28" width="30" height="6" fill="#555555"/>
<rect x="88" y="46" width="30" height="6" transform="rotate(-90 88 46)" fill="#555555"/>
<path d="M61.25 61.25H120.75V96C120.75 109.669 109.669 120.75 96 120.75H61.25V61.25Z" fill="#FF7433" stroke="#555555" stroke-width="0.5"/>
<rect x="76" y="83" width="30" height="6" fill="white"/>
<rect x="76" y="94" width="30" height="6" fill="white"/>
<path d="M26 1.25H60.75V60.75H1.25V26C1.25 12.331 12.331 1.25 26 1.25Z" fill="white" stroke="#555555" stroke-width="0.5"/>
<path d="M46 34L16 34L16 28L46 28L46 34Z" fill="#555555"/>
<circle cx="31" cy="22" r="5" fill="#555555"/>
<circle cx="31" cy="40" r="5" fill="#555555"/>
</svg>
